<mxfile host="app.diagrams.net" modified="2021-03-08T08:38:16.601Z" agent="5.0 (X11)" etag="e7LHJ52te73-P04WalFV" version="14.4.4" type="github">
  <diagram id="C5RBs43oDa-KdzZeNtuy" name="Page-1">
    <mxGraphModel dx="1422" dy="770" grid="1" gridSize="10" guides="1" tooltips="1" connect="1" arrows="1" fold="1" page="1" pageScale="1" pageWidth="827" pageHeight="1169" math="0" shadow="0">
      <root>
        <mxCell id="WIyWlLk6GJQsqaUBKTNV-0" />
        <mxCell id="WIyWlLk6GJQsqaUBKTNV-1" parent="WIyWlLk6GJQsqaUBKTNV-0" />
        <mxCell id="zkfFHV4jXpPFQw0GAbJ--17" value="Piece" style="swimlane;fontStyle=0;align=center;verticalAlign=top;childLayout=stackLayout;horizontal=1;startSize=26;horizontalStack=0;resizeParent=1;resizeLast=0;collapsible=1;marginBottom=0;rounded=0;shadow=0;strokeWidth=1;flipH=1;" parent="WIyWlLk6GJQsqaUBKTNV-1" vertex="1">
          <mxGeometry x="40" y="50" width="240" height="260" as="geometry">
            <mxRectangle x="550" y="140" width="160" height="26" as="alternateBounds" />
          </mxGeometry>
        </mxCell>
        <mxCell id="zkfFHV4jXpPFQw0GAbJ--18" value="+image: JLabel&#xa;+nom: String&#xa;+valeur: int&#xa;+couleur: boolean&#xa;+x: int&#xa;+y: int&#xa;+num: int&#xa;&#xa;" style="text;align=left;verticalAlign=top;spacingLeft=4;spacingRight=4;overflow=hidden;rotatable=0;points=[[0,0.5],[1,0.5]];portConstraint=eastwest;flipH=1;" parent="zkfFHV4jXpPFQw0GAbJ--17" vertex="1">
          <mxGeometry y="26" width="240" height="114" as="geometry" />
        </mxCell>
        <mxCell id="zkfFHV4jXpPFQw0GAbJ--23" value="" style="line;html=1;strokeWidth=1;align=left;verticalAlign=middle;spacingTop=-1;spacingLeft=3;spacingRight=3;rotatable=0;labelPosition=right;points=[];portConstraint=eastwest;flipH=1;" parent="zkfFHV4jXpPFQw0GAbJ--17" vertex="1">
          <mxGeometry y="140" width="240" height="8" as="geometry" />
        </mxCell>
        <mxCell id="zkfFHV4jXpPFQw0GAbJ--24" value="+Piece(int,String,int,boolean)&#xa;+maj(): void&#xa;+compareTo(Piece): int&#xa;+getCouleur(): boolean&#xa;+majLocation(): void&#xa;&#xa;&#xa;" style="text;align=left;verticalAlign=top;spacingLeft=4;spacingRight=4;overflow=hidden;rotatable=0;points=[[0,0.5],[1,0.5]];portConstraint=eastwest;fontStyle=0;flipH=1;" parent="zkfFHV4jXpPFQw0GAbJ--17" vertex="1">
          <mxGeometry y="148" width="240" height="82" as="geometry" />
        </mxCell>
        <mxCell id="YLITJ_lwk_BPIG0VDqPJ-0" value="&lt;i&gt;+typeDeplacement(Deplacement): boolean&lt;/i&gt;" style="text;html=1;strokeColor=none;fillColor=none;align=center;verticalAlign=middle;whiteSpace=wrap;rounded=0;flipH=1;" vertex="1" parent="zkfFHV4jXpPFQw0GAbJ--17">
          <mxGeometry y="230" width="240" height="20" as="geometry" />
        </mxCell>
        <mxCell id="YLITJ_lwk_BPIG0VDqPJ-1" value="Home" style="swimlane;fontStyle=0;align=center;verticalAlign=top;childLayout=stackLayout;horizontal=1;startSize=26;horizontalStack=0;resizeParent=1;resizeLast=0;collapsible=1;marginBottom=0;rounded=0;shadow=0;strokeWidth=1;" vertex="1" parent="WIyWlLk6GJQsqaUBKTNV-1">
          <mxGeometry x="540" y="50" width="240" height="260" as="geometry">
            <mxRectangle x="550" y="140" width="160" height="26" as="alternateBounds" />
          </mxGeometry>
        </mxCell>
        <mxCell id="YLITJ_lwk_BPIG0VDqPJ-2" value="+image: Image&#xa;+panel: JPanel&#xa;&#xa;&#xa;" style="text;align=left;verticalAlign=top;spacingLeft=4;spacingRight=4;overflow=hidden;rotatable=0;points=[[0,0.5],[1,0.5]];portConstraint=eastwest;" vertex="1" parent="YLITJ_lwk_BPIG0VDqPJ-1">
          <mxGeometry y="26" width="240" height="54" as="geometry" />
        </mxCell>
        <mxCell id="YLITJ_lwk_BPIG0VDqPJ-3" value="" style="line;html=1;strokeWidth=1;align=left;verticalAlign=middle;spacingTop=-1;spacingLeft=3;spacingRight=3;rotatable=0;labelPosition=right;points=[];portConstraint=eastwest;" vertex="1" parent="YLITJ_lwk_BPIG0VDqPJ-1">
          <mxGeometry y="80" width="240" height="8" as="geometry" />
        </mxCell>
        <mxCell id="YLITJ_lwk_BPIG0VDqPJ-4" value="+Home()&#xa;+paint(Graphics): void&#xa;+mouseClicked(MouseEvent): void&#xa;+mousePressed(MouseEvent): void&#xa;+mouseReleased(MouseEvent): void&#xa;+mouseEntered(MouseEvent): void&#xa;+mouseExcited(MouseEvent): void&#xa;&#xa;&#xa;" style="text;align=left;verticalAlign=top;spacingLeft=4;spacingRight=4;overflow=hidden;rotatable=0;points=[[0,0.5],[1,0.5]];portConstraint=eastwest;fontStyle=0" vertex="1" parent="YLITJ_lwk_BPIG0VDqPJ-1">
          <mxGeometry y="88" width="240" height="162" as="geometry" />
        </mxCell>
        <mxCell id="YLITJ_lwk_BPIG0VDqPJ-6" value="EchiquierG" style="swimlane;fontStyle=0;align=center;verticalAlign=top;childLayout=stackLayout;horizontal=1;startSize=26;horizontalStack=0;resizeParent=1;resizeLast=0;collapsible=1;marginBottom=0;rounded=0;shadow=0;strokeWidth=1;" vertex="1" parent="WIyWlLk6GJQsqaUBKTNV-1">
          <mxGeometry x="970" y="50" width="240" height="260" as="geometry">
            <mxRectangle x="550" y="140" width="160" height="26" as="alternateBounds" />
          </mxGeometry>
        </mxCell>
        <mxCell id="YLITJ_lwk_BPIG0VDqPJ-7" value="+ech: LinkedList&lt;Piece&gt;&#xa;+plateau: JPanel&#xa;+grille: JPanel&#xa;+PieceSelect: Piece&#xa;+sourisInt: boolean&#xa;&#xa;&#xa;&#xa;" style="text;align=left;verticalAlign=top;spacingLeft=4;spacingRight=4;overflow=hidden;rotatable=0;points=[[0,0.5],[1,0.5]];portConstraint=eastwest;" vertex="1" parent="YLITJ_lwk_BPIG0VDqPJ-6">
          <mxGeometry y="26" width="240" height="84" as="geometry" />
        </mxCell>
        <mxCell id="YLITJ_lwk_BPIG0VDqPJ-8" value="" style="line;html=1;strokeWidth=1;align=left;verticalAlign=middle;spacingTop=-1;spacingLeft=3;spacingRight=3;rotatable=0;labelPosition=right;points=[];portConstraint=eastwest;" vertex="1" parent="YLITJ_lwk_BPIG0VDqPJ-6">
          <mxGeometry y="110" width="240" height="8" as="geometry" />
        </mxCell>
        <mxCell id="YLITJ_lwk_BPIG0VDqPJ-9" value="+EchiquierG()&#xa;&#xa;&#xa;&#xa;" style="text;align=left;verticalAlign=top;spacingLeft=4;spacingRight=4;overflow=hidden;rotatable=0;points=[[0,0.5],[1,0.5]];portConstraint=eastwest;fontStyle=0" vertex="1" parent="YLITJ_lwk_BPIG0VDqPJ-6">
          <mxGeometry y="118" width="240" height="142" as="geometry" />
        </mxCell>
        <mxCell id="YLITJ_lwk_BPIG0VDqPJ-10" value="Coordonnee" style="swimlane;fontStyle=0;align=center;verticalAlign=top;childLayout=stackLayout;horizontal=1;startSize=26;horizontalStack=0;resizeParent=1;resizeLast=0;collapsible=1;marginBottom=0;rounded=0;shadow=0;strokeWidth=1;" vertex="1" parent="WIyWlLk6GJQsqaUBKTNV-1">
          <mxGeometry x="270" y="325" width="240" height="260" as="geometry">
            <mxRectangle x="550" y="140" width="160" height="26" as="alternateBounds" />
          </mxGeometry>
        </mxCell>
        <mxCell id="YLITJ_lwk_BPIG0VDqPJ-11" value="-coordonneeX: int&#xa;-coordonneeY: int" style="text;align=left;verticalAlign=top;spacingLeft=4;spacingRight=4;overflow=hidden;rotatable=0;points=[[0,0.5],[1,0.5]];portConstraint=eastwest;" vertex="1" parent="YLITJ_lwk_BPIG0VDqPJ-10">
          <mxGeometry y="26" width="240" height="84" as="geometry" />
        </mxCell>
        <mxCell id="YLITJ_lwk_BPIG0VDqPJ-12" value="" style="line;html=1;strokeWidth=1;align=left;verticalAlign=middle;spacingTop=-1;spacingLeft=3;spacingRight=3;rotatable=0;labelPosition=right;points=[];portConstraint=eastwest;" vertex="1" parent="YLITJ_lwk_BPIG0VDqPJ-10">
          <mxGeometry y="110" width="240" height="8" as="geometry" />
        </mxCell>
        <mxCell id="YLITJ_lwk_BPIG0VDqPJ-13" value="+Coordonnee()&#xa;+getX(): int&#xa;+getY(): int&#xa;+setX(int): void&#xa;+setY(int): void&#xa;+equals(Coordonnee): boolean&#xa;" style="text;align=left;verticalAlign=top;spacingLeft=4;spacingRight=4;overflow=hidden;rotatable=0;points=[[0,0.5],[1,0.5]];portConstraint=eastwest;fontStyle=0" vertex="1" parent="YLITJ_lwk_BPIG0VDqPJ-10">
          <mxGeometry y="118" width="240" height="142" as="geometry" />
        </mxCell>
        <mxCell id="YLITJ_lwk_BPIG0VDqPJ-14" value="Deplacement" style="swimlane;fontStyle=0;align=center;verticalAlign=top;childLayout=stackLayout;horizontal=1;startSize=26;horizontalStack=0;resizeParent=1;resizeLast=0;collapsible=1;marginBottom=0;rounded=0;shadow=0;strokeWidth=1;" vertex="1" parent="WIyWlLk6GJQsqaUBKTNV-1">
          <mxGeometry x="590" y="340" width="240" height="260" as="geometry">
            <mxRectangle x="550" y="140" width="160" height="26" as="alternateBounds" />
          </mxGeometry>
        </mxCell>
        <mxCell id="YLITJ_lwk_BPIG0VDqPJ-15" value="-deplacementX: int&#xa;-deplacementY: int&#xa;-depart: Coordonnee&#xa;-arrivee: Coordonnee&#xa;" style="text;align=left;verticalAlign=top;spacingLeft=4;spacingRight=4;overflow=hidden;rotatable=0;points=[[0,0.5],[1,0.5]];portConstraint=eastwest;" vertex="1" parent="YLITJ_lwk_BPIG0VDqPJ-14">
          <mxGeometry y="26" width="240" height="84" as="geometry" />
        </mxCell>
        <mxCell id="YLITJ_lwk_BPIG0VDqPJ-16" value="" style="line;html=1;strokeWidth=1;align=left;verticalAlign=middle;spacingTop=-1;spacingLeft=3;spacingRight=3;rotatable=0;labelPosition=right;points=[];portConstraint=eastwest;" vertex="1" parent="YLITJ_lwk_BPIG0VDqPJ-14">
          <mxGeometry y="110" width="240" height="8" as="geometry" />
        </mxCell>
        <mxCell id="YLITJ_lwk_BPIG0VDqPJ-17" value="+Deplacement(Coordonnee, Coordonnee)&#xa;+getDeplacementX(): double&#xa;+getDeplacementY(): double&#xa;+getDepart(): Coordonnee&#xa;+getArrivee(): Coordonnee&#xa;+setDepart(Coordonnee): void&#xa;+setArrivee(Coordonnee): void&#xa;+estNul(): boolean&#xa;" style="text;align=left;verticalAlign=top;spacingLeft=4;spacingRight=4;overflow=hidden;rotatable=0;points=[[0,0.5],[1,0.5]];portConstraint=eastwest;fontStyle=0" vertex="1" parent="YLITJ_lwk_BPIG0VDqPJ-14">
          <mxGeometry y="118" width="240" height="142" as="geometry" />
        </mxCell>
        <mxCell id="YLITJ_lwk_BPIG0VDqPJ-18" value="Cimetiere" style="swimlane;fontStyle=0;align=center;verticalAlign=top;childLayout=stackLayout;horizontal=1;startSize=26;horizontalStack=0;resizeParent=1;resizeLast=0;collapsible=1;marginBottom=0;rounded=0;shadow=0;strokeWidth=1;" vertex="1" parent="WIyWlLk6GJQsqaUBKTNV-1">
          <mxGeometry x="970" y="330" width="240" height="260" as="geometry">
            <mxRectangle x="550" y="140" width="160" height="26" as="alternateBounds" />
          </mxGeometry>
        </mxCell>
        <mxCell id="YLITJ_lwk_BPIG0VDqPJ-19" value="&#xa;&#xa;&#xa;" style="text;align=left;verticalAlign=top;spacingLeft=4;spacingRight=4;overflow=hidden;rotatable=0;points=[[0,0.5],[1,0.5]];portConstraint=eastwest;" vertex="1" parent="YLITJ_lwk_BPIG0VDqPJ-18">
          <mxGeometry y="26" width="240" height="84" as="geometry" />
        </mxCell>
        <mxCell id="YLITJ_lwk_BPIG0VDqPJ-20" value="" style="line;html=1;strokeWidth=1;align=left;verticalAlign=middle;spacingTop=-1;spacingLeft=3;spacingRight=3;rotatable=0;labelPosition=right;points=[];portConstraint=eastwest;" vertex="1" parent="YLITJ_lwk_BPIG0VDqPJ-18">
          <mxGeometry y="110" width="240" height="8" as="geometry" />
        </mxCell>
        <mxCell id="YLITJ_lwk_BPIG0VDqPJ-27" value="Fou" style="swimlane;fontStyle=0;align=center;verticalAlign=top;childLayout=stackLayout;horizontal=1;startSize=26;horizontalStack=0;resizeParent=1;resizeLast=0;collapsible=1;marginBottom=0;rounded=0;shadow=0;strokeWidth=1;" vertex="1" parent="WIyWlLk6GJQsqaUBKTNV-1">
          <mxGeometry x="40" y="630" width="240" height="260" as="geometry">
            <mxRectangle x="550" y="140" width="160" height="26" as="alternateBounds" />
          </mxGeometry>
        </mxCell>
        <mxCell id="YLITJ_lwk_BPIG0VDqPJ-29" value="" style="line;html=1;strokeWidth=1;align=left;verticalAlign=middle;spacingTop=-1;spacingLeft=3;spacingRight=3;rotatable=0;labelPosition=right;points=[];portConstraint=eastwest;" vertex="1" parent="YLITJ_lwk_BPIG0VDqPJ-27">
          <mxGeometry y="26" width="240" height="24" as="geometry" />
        </mxCell>
        <mxCell id="YLITJ_lwk_BPIG0VDqPJ-30" value="+Fou(int, boolean)&#xa;+toString(): String&#xa;+typeDeplacement(Deplacement): boolean&#xa;" style="text;align=left;verticalAlign=top;spacingLeft=4;spacingRight=4;overflow=hidden;rotatable=0;points=[[0,0.5],[1,0.5]];portConstraint=eastwest;fontStyle=0" vertex="1" parent="YLITJ_lwk_BPIG0VDqPJ-27">
          <mxGeometry y="50" width="240" height="142" as="geometry" />
        </mxCell>
        <mxCell id="YLITJ_lwk_BPIG0VDqPJ-31" value="Roi" style="swimlane;fontStyle=0;align=center;verticalAlign=top;childLayout=stackLayout;horizontal=1;startSize=26;horizontalStack=0;resizeParent=1;resizeLast=0;collapsible=1;marginBottom=0;rounded=0;shadow=0;strokeWidth=1;" vertex="1" parent="WIyWlLk6GJQsqaUBKTNV-1">
          <mxGeometry x="294" y="630" width="240" height="260" as="geometry">
            <mxRectangle x="550" y="140" width="160" height="26" as="alternateBounds" />
          </mxGeometry>
        </mxCell>
        <mxCell id="YLITJ_lwk_BPIG0VDqPJ-32" value="" style="line;html=1;strokeWidth=1;align=left;verticalAlign=middle;spacingTop=-1;spacingLeft=3;spacingRight=3;rotatable=0;labelPosition=right;points=[];portConstraint=eastwest;" vertex="1" parent="YLITJ_lwk_BPIG0VDqPJ-31">
          <mxGeometry y="26" width="240" height="24" as="geometry" />
        </mxCell>
        <mxCell id="YLITJ_lwk_BPIG0VDqPJ-33" value="+Roi(int, boolean)&#xa;+toString(): String&#xa;+typeDeplacement(Deplacement): boolean&#xa;" style="text;align=left;verticalAlign=top;spacingLeft=4;spacingRight=4;overflow=hidden;rotatable=0;points=[[0,0.5],[1,0.5]];portConstraint=eastwest;fontStyle=0" vertex="1" parent="YLITJ_lwk_BPIG0VDqPJ-31">
          <mxGeometry y="50" width="240" height="142" as="geometry" />
        </mxCell>
        <mxCell id="YLITJ_lwk_BPIG0VDqPJ-34" value="Pion" style="swimlane;fontStyle=0;align=center;verticalAlign=top;childLayout=stackLayout;horizontal=1;startSize=26;horizontalStack=0;resizeParent=1;resizeLast=0;collapsible=1;marginBottom=0;rounded=0;shadow=0;strokeWidth=1;" vertex="1" parent="WIyWlLk6GJQsqaUBKTNV-1">
          <mxGeometry x="550" y="630" width="240" height="260" as="geometry">
            <mxRectangle x="550" y="140" width="160" height="26" as="alternateBounds" />
          </mxGeometry>
        </mxCell>
        <mxCell id="YLITJ_lwk_BPIG0VDqPJ-35" value="" style="line;html=1;strokeWidth=1;align=left;verticalAlign=middle;spacingTop=-1;spacingLeft=3;spacingRight=3;rotatable=0;labelPosition=right;points=[];portConstraint=eastwest;" vertex="1" parent="YLITJ_lwk_BPIG0VDqPJ-34">
          <mxGeometry y="26" width="240" height="24" as="geometry" />
        </mxCell>
        <mxCell id="YLITJ_lwk_BPIG0VDqPJ-36" value="+Pion(int, boolean)&#xa;+toString(): String&#xa;+typeDeplacement(Deplacement): boolean&#xa;" style="text;align=left;verticalAlign=top;spacingLeft=4;spacingRight=4;overflow=hidden;rotatable=0;points=[[0,0.5],[1,0.5]];portConstraint=eastwest;fontStyle=0" vertex="1" parent="YLITJ_lwk_BPIG0VDqPJ-34">
          <mxGeometry y="50" width="240" height="142" as="geometry" />
        </mxCell>
      </root>
    </mxGraphModel>
  </diagram>
</mxfile>
